<?xml version="1.0" encoding="UTF-8" standalone="no"?>
<!DOCTYPE svg PUBLIC "-//W3C//DTD SVG 1.1//EN" "http://www.w3.org/Graphics/SVG/1.1/DTD/svg11.dtd">
<svg width="100%" height="100%" viewBox="0 0 114 114" version="1.1" xmlns="http://www.w3.org/2000/svg" xmlns:xlink="http://www.w3.org/1999/xlink" xml:space="preserve" xmlns:serif="http://www.serif.com/" style="fill-rule:evenodd;clip-rule:evenodd;stroke-linejoin:round;stroke-miterlimit:2;">
    <path d="M103.963,25.663L82.7,39.6C85.9,44.5 87.7,50.3 87.7,56.6C87.7,62.9 85.8,68.7 82.7,73.6L104,87.5C109.8,78.6 113.2,68 113.2,56.6C113.2,45.2 109.763,34.463 103.963,25.663Z" style="fill-opacity:0.4;fill-rule:nonzero;"/>
    <path d="M56.6,87.8C39.4,87.8 25.4,73.8 25.4,56.6C25.4,39.4 39.4,25.4 56.6,25.4C67.6,25.4 77.2,31 82.7,39.6L104,25.7C94,10.3 76.5,0 56.6,0C25.4,0 0,25.3 0,56.6C0,87.9 25.4,113.2 56.6,113.2C76.5,113.2 94,102.9 104.1,87.4L82.7,73.6C77.2,82.1 67.6,87.8 56.6,87.8Z" style="fill-rule:nonzero;"/>
</svg>
