<?xml version="1.0" encoding="utf-8"?>
<!DOCTYPE svg PUBLIC "-//W3C//DTD SVG 1.1//EN" "http://www.w3.org/Graphics/SVG/1.1/DTD/svg11.dtd">
<svg version="1.1" id="Layer_1_copy_2" xmlns="http://www.w3.org/2000/svg" xmlns:xlink="http://www.w3.org/1999/xlink" x="0px"
	 y="0px" width="2048px" height="2048px" viewBox="0 0 2048 2048" enable-background="new 0 0 2048 2048" xml:space="preserve">
<path d="M1436.078,1291.606c-87.657,134.685-239.403,223.812-412.076,223.812c-271.401,0-491.419-220.019-491.419-491.425
	c0-271.395,220.019-491.413,491.419-491.413c172.672,0,324.418,89.128,412.076,223.813l338.496-219.823
	c-159.643-245.306-436.067-407.654-750.572-407.654c-494.339,0-895.083,400.744-895.083,895.077
	c0,494.346,400.743,895.089,895.083,895.089c314.504,0,590.929-162.337,750.572-407.653l-38.416-24.948L1436.078,1291.606z"/>
</svg>
