<?xml version="1.0" encoding="UTF-8" standalone="no"?>
<!DOCTYPE svg PUBLIC "-//W3C//DTD SVG 1.1//EN" "http://www.w3.org/Graphics/SVG/1.1/DTD/svg11.dtd">
<svg width="100%" height="100%" viewBox="0 0 512 512" version="1.1" xmlns="http://www.w3.org/2000/svg" xmlns:xlink="http://www.w3.org/1999/xlink" xml:space="preserve" xmlns:serif="http://www.serif.com/" style="fill-rule:evenodd;clip-rule:evenodd;stroke-linejoin:round;stroke-miterlimit:2;">
    <path d="M495.95,166.65C499.15,175.35 496.45,185.05 489.55,191.25L458.65,219.35C450.95,226.45 447.25,236.85 447.75,247.25C447.85,250.15 447.95,253.05 447.95,256.05C447.95,259.05 447.85,261.95 447.75,264.85C447.25,275.35 450.85,285.75 458.65,292.75L489.55,320.85C496.45,327.05 499.15,336.75 495.95,345.45C491.55,357.35 486.25,368.75 480.15,379.75L475.45,387.85C468.85,398.85 461.45,409.25 453.35,419.05C447.45,426.25 437.65,428.65 428.85,425.85L389.15,413.25C379.15,410.05 368.35,412.15 359.45,417.85C354.55,420.95 349.55,423.95 344.35,426.55C335.05,431.35 327.85,439.75 325.55,449.95L316.65,490.65C314.65,499.75 307.65,506.95 298.45,508.45C284.65,510.75 270.45,511.95 255.95,511.95C241.45,511.95 227.25,510.75 213.45,508.45C204.25,506.95 197.25,499.75 195.25,490.65L186.35,449.95C184.15,439.75 176.85,431.35 167.55,426.55C162.35,423.85 157.35,420.95 152.45,417.85C143.65,412.15 132.75,410.05 122.75,413.25L83.15,425.95C74.35,428.75 64.55,426.25 58.65,419.15C50.55,409.35 43.15,398.95 36.55,387.95L31.85,379.85C25.75,368.85 20.45,357.45 16.05,345.55C12.85,336.85 15.55,327.15 22.45,320.95L53.35,292.85C61.05,285.75 64.75,275.35 64.25,264.95C64.15,262.05 64.05,259.15 64.05,256.15C64.05,253.15 64.15,250.25 64.25,247.35C64.75,236.85 61.15,226.45 53.35,219.45L22.45,191.25C15.55,185.05 12.85,175.35 16.05,166.65C20.45,154.75 25.75,143.35 31.85,132.35L36.55,124.25C43.15,113.25 50.55,102.85 58.65,93.05C64.55,85.85 74.35,83.45 83.15,86.25L122.85,98.85C132.85,102.05 143.65,99.95 152.55,94.25C157.45,91.15 162.45,88.15 167.65,85.55C176.95,80.75 184.15,72.35 186.45,62.15L195.35,21.45C197.35,12.35 204.35,5.15 213.55,3.65C227.35,1.25 241.55,0.05 256.05,0.05C270.55,0.05 284.75,1.25 298.55,3.55C307.75,5.05 314.75,12.25 316.75,21.35L325.65,62.05C327.85,72.25 335.05,80.65 344.45,85.45C349.65,88.15 354.65,91.05 359.55,94.15C368.35,99.85 379.25,101.85 389.25,98.75L428.95,86.15C437.75,83.35 447.55,85.85 453.45,92.95C461.55,102.75 468.95,113.15 475.55,124.15L480.25,132.25C486.35,143.25 491.65,154.65 496.05,166.55L495.95,166.65ZM256.05,336.05C299.937,336.05 336.05,299.937 336.05,256.05C336.05,212.163 299.937,176.05 256.05,176.05C212.163,176.05 176.05,212.163 176.05,256.05C176.05,299.937 212.163,336.05 256.05,336.05Z" style="fill-rule:nonzero;"/>
</svg>
